{
    "asset": {
        "version": "2.0",
        "generator": "Open Asset Import Library (assimp v5.2.cf7d3637)"
    },
    "extensionsUsed": [
        "KHR_materials_volume",
        "FB_ngon_encoding"
    ],
    "accessors": [
        {
            "bufferView": 0,
            "byteOffset": 0,
            "componentType": 5126,
            "count": 2106,
            "type": "VEC3",
            "max": [
                36.08639907836914,
                2.3230819702148439,
                1.2128634452819825
            ],
            "min": [
                0.0,
                -118.75474548339844,
                -4.728927135467529
            ]
        },
        {
            "bufferView": 1,
            "byteOffset": 0,
            "componentType": 5126,
            "count": 2106,
            "type": "VEC3",
            "max": [
                1.0,
                1.0,
                1.0
            ],
            "min": [
                -1.0,
                -1.0,
                -1.0
            ]
        },
        {
            "bufferView": 2,
            "byteOffset": 0,
            "componentType": 5126,
            "count": 2106,
            "type": "VEC2",
            "max": [
                0.75,
                1.0
            ],
            "min": [
                0.0,
                0.125
            ]
        },
        {
            "bufferView": 3,
            "byteOffset": 0,
            "componentType": 5125,
            "count": 2106,
            "type": "SCALAR",
            "max": [
                2105
            ],
            "min": [
                0
            ]
        }
    ],
    "buffers": [
        {
            "byteLength": 75816,
            "uri": "result.bin"
        }
    ],
    "bufferViews": [
        {
            "buffer": 0,
            "byteOffset": 0,
            "byteLength": 25272,
            "target": 34962
        },
        {
            "buffer": 0,
            "byteOffset": 25272,
            "byteLength": 25272,
            "target": 34962
        },
        {
            "buffer": 0,
            "byteOffset": 50544,
            "byteLength": 16848,
            "target": 34962
        },
        {
            "buffer": 0,
            "byteOffset": 67392,
            "byteLength": 8424,
            "target": 34963
        }
    ],
    "materials": [
        {
            "name": "material"
        }
    ],
    "meshes": [
        {
            "name": "Cubo.003",
            "primitives": [
                {
                    "mode": 4,
                    "material": 0,
                    "indices": 3,
                    "attributes": {
                        "POSITION": 0,
                        "NORMAL": 1,
                        "TEXCOORD_0": 2
                    }
                }
            ]
        }
    ],
    "nodes": [
        {
            "name": "Cubo.003",
            "matrix": [
                0.0028341575525701048,
                0.0,
                -0.04898662120103836,
                0.0,
                0.0,
                0.04906853660941124,
                0.0,
                0.0,
                0.04898662120103836,
                0.0,
                0.0028341575525701048,
                0.0,
                3.8755013942718508,
                6.677981376647949,
                1.1719622611999512,
                1.0
            ],
            "mesh": 0
        }
    ],
    "scenes": [
        {
            "nodes": [
                0
            ]
        }
    ],
    "scene": 0
}